<?xml version="1.0" encoding="UTF-8"?>
<svg id="_레이어_1" data-name="레이어_1" xmlns="http://www.w3.org/2000/svg" version="1.1" viewBox="0 0 22.9 25">
  <!-- Generator: Adobe Illustrator 29.0.1, SVG Export Plug-In . SVG Version: 2.1.0 Build 192)  -->
  <defs>
    <style>
      .st0 {
        fill: #231815;
      }
    </style>
  </defs>
  <path class="st0" d="M16.5,11.2v7.6l-2.4-2.3c0,0-.3,0-.3,0l-1.3,1.2s0,.1,0,.2,0,.1,0,.2l5,4.8s.1,0,.2,0,.1,0,.2,0l5-4.8s0-.1,0-.2,0-.1,0-.2l-1.3-1.2c0,0-.3,0-.3,0l-2.4,2.3v-7.6c0-.1-.1-.2-.2-.2h-1.8c-.1,0-.2.1-.2.2Z"/>
  <rect class="st0" x="12.5" y="23" width="10.4" height="2" rx=".2" ry=".2"/>
  <path class="st0" d="M15,8.9c0,0,.1,0,.2,0l1.4-1.3c0,0,.1-.3,0-.4L10.1.4h0c0,0,0,0,0,0-.3-.3-.8-.4-1.3-.2-.4.2-.7.6-.7,1.1v11.6c-.8-.6-1.8-.8-2.8-.8-2.9,0-5.2,2.4-5.2,5.3s2.3,5.3,5.2,5.3,5.2-2.3,5.2-5.2c0,0,0,0,0,0V4.2l4.4,4.7s.1,0,.2,0ZM7.9,17.2c0,1.5-1.2,2.8-2.7,2.8s-2.7-1.2-2.7-2.8,1.2-2.8,2.7-2.8,2.7,1.2,2.7,2.8Z"/>
</svg>