<?xml version="1.0" encoding="UTF-8"?>
<svg id="_레이어_1" data-name="레이어_1" xmlns="http://www.w3.org/2000/svg" version="1.1" viewBox="0 0 32.6 32.6">
  <!-- Generator: Adobe Illustrator 29.0.1, SVG Export Plug-In . SVG Version: 2.1.0 Build 192)  -->
  <g>
    <path d="M28.1,8.3h-10.2v22.9h7.3c1.8,0,3.3-1.5,3.3-3.3v-10.6c2.3-.2,4.1-2.1,4.1-4.5h0c0-2.5-2-4.5-4.5-4.5Z"/>
    <path d="M4.5,8.3c-2.5,0-4.5,2-4.5,4.5h0c0,2.4,1.8,4.3,4.1,4.5v10.6c0,1.8,1.5,3.3,3.3,3.3h7.3V8.3H4.5Z"/>
  </g>
  <path d="M26,1.9c-1.6-.9-3.6-.7-5.2.5l-5.2,5.1-3.5-3.5c-2.1-1.8-4.6-1.4-6.1-.1-1.1.9-2,2.5-1.6,4.5h3.8c-.5-.6-.4-1.2,0-1.5.3-.4.9-.7,1.6-.3l1.8,1.8h8.4l3.1-3.2c.4-.3.9-.4,1.4-.1.4.2.6.7.6,1.2,0,.4-.7,1.1-1.2,1.5h0c-.2.2-.4.4-.6.6h4.7c.3-.5.6-1.2.6-1.9.1-1.9-.8-3.6-2.4-4.5Z"/>
</svg>