<?xml version="1.0" encoding="UTF-8"?>
<svg id="_레이어_1" xmlns="http://www.w3.org/2000/svg" version="1.1" viewBox="0 0 43.6 15">
  <!-- Generator: Adobe Illustrator 29.0.1, SVG Export Plug-In . SVG Version: 2.1.0 Build 192)  -->
  <g>
    <path d="M39.2,4.9v5.3l-1.7-1.6h-.2l-.9.8h0v.3l3.5,3.3h.3l3.5-3.3h0v-.3l-.9-.8h-.2l-1.7,1.6v-5.3c0,0,0-.1-.1-.1h-1.2c0,0-.1,0-.1.1h-.1Z"/>
    <rect x="36.4" y="13.1" width="7.2" height="1.4" rx=".1" ry=".1"/>
  </g>
  <g>
    <path d="M32.6,15H1.4c-.8,0-1.4-.6-1.4-1.4V1.4C0,.6.6,0,1.4,0h31.2c.8,0,1.4.6,1.4,1.4v12.2c0,.8-.6,1.4-1.4,1.4ZM1.4.8c-.3,0-.6.3-.6.6v12.2c0,.3.3.6.6.6h31.2c.3,0,.6-.3.6-.6V1.4c0-.3-.3-.6-.6-.6H1.4Z"/>
    <g>
      <path d="M5.8,11V4h4.3v1h-3.1v2.1h2.4v1h-2.4v3h-1.3Z"/>
      <path d="M11.4,11V4h1.3v6h3v1h-4.2Z"/>
      <path d="M16.1,11l2.6-7h1.3l2.5,7h-1.3l-.6-1.8h-2.6l-.6,1.8h-1.2ZM19.2,5.5l-1,2.8h2l-1-2.8h0Z"/>
      <path d="M26.2,11.1c-1,0-1.8-.3-2.3-.9-.6-.6-.8-1.5-.8-2.6v-.3c0-1.2.3-2.1.9-2.6.6-.6,1.4-.8,2.4-.8s1.3.1,1.8.4v1c-.6-.2-1.1-.3-1.7-.3-1.4,0-2,.8-2,2.3v.4c0,.8.2,1.5.5,1.9.3.4.8.6,1.6.6s1.1-.1,1.7-.4v1c-.5.3-1.2.4-2,.4Z"/>
    </g>
  </g>
</svg>