<?xml version="1.0" encoding="UTF-8"?>
<svg id="_레이어_1" data-name="레이어_1" xmlns="http://www.w3.org/2000/svg" version="1.1" viewBox="0 0 35 28.8">
  <!-- Generator: Adobe Illustrator 29.0.1, SVG Export Plug-In . SVG Version: 2.1.0 Build 192)  -->
  <path d="M2.9,11.4c-.8-.5-1.3-1.2-2.1-1.6-2.8,5.5,6.6,7.7,10.5,7.8,1.1,0,2.9-.1,4.7-.5.3-1.7,1.1-3.2,2.1-4.4-4.8,1.4-11.5,1-15.2-1.3Z"/>
  <path d="M15.8,19.1c-5.3,1-11.3-.2-14.9-3.6-1.3,2-.4,3.9,1.4,5.2,3.1,2.4,9.3,3.2,14.3,2.2-.5-1.2-.7-2.4-.7-3.8s0,0,0,0Z"/>
  <path d="M17.2,24.2c-5.6,1.5-12.4.5-16.3-3.3-1.3,2-.4,3.9,1.4,5.2,3.9,3,12.7,3.5,17.8,1.1-1.2-.8-2.1-1.9-2.9-3.1Z"/>
  <ellipse cx="12.1" cy="5.9" rx="12.1" ry="5.9"/>
  <path d="M25.8,9.9c-.8,0-1.5,0-2.2.3-.6.1-1.1.3-1.6.5-.8.4-1.6.8-2.2,1.4-1.4,1.2-2.5,2.9-3,4.9-.1.6-.2,1.2-.2,1.9,0,0,0,.2,0,.2,0,1.3.3,2.5.7,3.6.2.4.4.9.7,1.3.7,1.2,1.7,2.2,2.9,2.9,1.4.9,3.1,1.4,4.9,1.4,5.1,0,9.2-4.1,9.2-9.2s-4.1-9.2-9.2-9.2Z"/>
</svg>