<?xml version="1.0" encoding="UTF-8"?>
<svg id="_레이어_1" data-name="레이어_1" xmlns="http://www.w3.org/2000/svg" version="1.1" viewBox="0 0 29.5 24.1">
  <!-- Generator: Adobe Illustrator 29.0.1, SVG Export Plug-In . SVG Version: 2.1.0 Build 192)  -->
  <path d="M28.7.5c-.3,1.4-1.3,2.5-2.5,3.3h1c0-.1,2.3-.8,2.3-.8-.8,1.2-1.9,2.2-3,3.1,0,.4,0,.8,0,1.1-.2,5.3-2.9,10.6-7.2,13.7S5.8,25.1,0,21.4c0,0,.1,0,.2,0,2.6.2,4.9-.2,7.2-1.5s1-.6,1.5-1c0-.1,0,0-.1,0-2.5-.2-4.7-1.7-5.4-4.2.8,0,1.7.1,2.4,0s.2,0,.2,0c-2.3-.4-4.3-2.5-4.7-4.8s0-.8-.1-1.2c.9.3,1.8.7,2.7.7l-.8-.6C1.1,6.7.6,3.6,2,1.2c0,0,.5.6.6.7,3.1,3.3,7.2,5.3,11.8,5.6,0,0,0,0,0,0,0-.2-.1-.4-.1-.6-.3-4.9,4.6-8.5,9.1-5.9s1,.7,1.4,1.1c1.3-.3,2.6-.8,3.8-1.4Z"/>
</svg>