<?xml version="1.0" encoding="UTF-8"?>
<svg id="_레이어_1" data-name="레이어_1" xmlns="http://www.w3.org/2000/svg" version="1.1" xmlns:xlink="http://www.w3.org/1999/xlink" viewBox="0 0 292.4 53">
  <!-- Generator: Adobe Illustrator 29.0.1, SVG Export Plug-In . SVG Version: 2.1.0 Build 192)  -->
  <defs>
    <style>
      .st0, .st1 {
        fill: #231815;
      }

      .st2 {
        mask: url(#mask);
      }

      .st3 {
        fill: #fff;
      }

      .st3, .st1 {
        fill-rule: evenodd;
      }

      .st4 {
        fill: none;
      }
    </style>
    <mask id="mask" x="-2" y="12.6" width="24.3" height="24.3" maskUnits="userSpaceOnUse">
      <g id="okb">
        <path id="oka" class="st3" d="M-2,12.6h24.3v24.3H-2V12.6ZM0,34.1h.7c3.5,0,6.8-1.8,8.7-4.7l3.8-6.8c1.1-1.6,2.9-2.6,4.9-2.6h.7v-4.6h-.7c-3.5,0-6.8,1.8-8.7,4.7l-3.8,6.8c-1.1,1.6-2.9,2.6-4.9,2.6H0v4.6h0Z"/>
      </g>
    </mask>
  </defs>
  <g>
    <path class="st0" d="M146.4,53c-14.6,0-26.5-11.9-26.5-26.5S131.7,0,146.4,0s26.5,11.9,26.5,26.5-11.9,26.5-26.5,26.5ZM146.4,2c-13.5,0-24.5,11-24.5,24.5s11,24.5,24.5,24.5,24.5-11,24.5-24.5-11-24.5-24.5-24.5Z"/>
    <path class="st1" d="M152.8,26.9l-10.7,6.7c0,0-.2,0-.2,0,0,0,0,0,0,0v-13.8c0-.1,0-.2.2-.2s0,0,0,0l10.7,6.7c.2.1.2.3.1.5,0,0,0,.1-.1.2Z"/>
  </g>
  <g>
    <g class="st2">
      <path class="st0" d="M18.7,31.6h-.7c-3.4,0-6.1-2.4-7.6-4.6l-3.8-5.8c-1.5-2.3-3.8-3.7-5.9-3.7h-.7v-2h.7c3.4,0,6.1,2.4,7.6,4.6l3.8,5.8c1.5,2.3,3.8,3.7,5.9,3.7h.7v2Z"/>
    </g>
    <path class="st0" d="M.3,32.1v-2c2.7,0,5.3-1.5,6.8-3.8l3.3-5.3c1.8-2.9,5-4.7,8.5-4.7v2c-2.7,0-5.3,1.5-6.8,3.8l-3.3,5.3c-1.8,2.9-5,4.7-8.5,4.7Z"/>
    <path class="st0" d="M17.3,34.1l-1.1-1.1,2.3-2.3-2.3-2.3,1.1-1.1,2.9,2.9c.3.3.3.8,0,1.1l-2.9,2.9ZM17.3,21.1l-1.1-1.1,2.3-2.3-2.3-2.3,1.1-1.1,2.9,2.9c.3.3.3.8,0,1.1l-2.9,2.9Z"/>
  </g>
  <g>
    <path class="st4" d="M272.6,15.5h19.8v19.8h-19.8V15.5Z"/>
    <path class="st0" d="M283.8,32.3h-8.5v-1.7h8.5c3.1,0,5.6-2.5,5.6-5.6h1.7c0,4-3.3,7.3-7.3,7.3ZM276.6,34.2l-2.3-2.3c-.3-.3-.3-.8,0-1l2.3-2.3,1,1-1.8,1.8,1.8,1.8-1,1Z"/>
    <path class="st0" d="M288.4,19.7l-1-1,1.8-1.8-1.8-1.8,1-1,2.3,2.3c.1.1.2.3.2.5s0,.4-.2.5l-2.3,2.3ZM275.7,23.2h-1.7c0-4,3.3-7.3,7.3-7.3h8.5v1.7h-8.5c-3.1,0-5.6,2.5-5.6,5.6Z"/>
  </g>
  <g>
    <path class="st1" d="M73.4,16v19.8h-1.4V16h1.4Z"/>
    <path class="st1" d="M73.6,25.6l10.7-6.7c0,0,.2,0,.2,0,0,0,0,0,0,0v13.8c0,.1,0,.2-.2.2s0,0,0,0l-10.7-6.7c-.2-.1-.2-.3-.1-.5,0,0,0-.1.1-.2Z"/>
  </g>
  <g>
    <path class="st1" d="M219.3,35.8V16h1.4v19.8h-1.4Z"/>
    <path class="st1" d="M219.1,26.3l-10.7,6.7c0,0-.2,0-.2,0,0,0,0,0,0,0v-13.8c0-.1,0-.2.2-.2s0,0,0,0l10.7,6.7c.2.1.2.3.1.5,0,0,0,.1-.1.2Z"/>
  </g>
</svg>