<?xml version="1.0" encoding="UTF-8"?>
<svg id="_레이어_1" xmlns="http://www.w3.org/2000/svg" version="1.1" viewBox="0 0 43.6 15">
  <!-- Generator: Adobe Illustrator 29.0.1, SVG Export Plug-In . SVG Version: 2.1.0 Build 192)  -->
  <g>
    <path d="M39.2,4.9v5.3l-1.7-1.6h-.2l-.9.8h0v.3l3.5,3.3h.3l3.5-3.3h0v-.3l-.9-.8h-.2l-1.7,1.6v-5.3c0,0,0-.1-.1-.1h-1.2c0,0-.1,0-.1.1h-.1Z"/>
    <rect x="36.4" y="13.1" width="7.2" height="1.4" rx=".1" ry=".1"/>
  </g>
  <g>
    <path d="M32.6,15H1.4c-.8,0-1.4-.6-1.4-1.4V1.4C0,.6.6,0,1.4,0h31.2C33.4,0,34,.6,34,1.4v12.2c0,.8-.6,1.4-1.4,1.4ZM1.4.8c-.3,0-.6.3-.6.6v12.2c0,.3.3.6.6.6h31.2c.3,0,.6-.3.6-.6V1.4c0-.3-.3-.6-.6-.6H1.4Z"/>
    <path d="M14.7,10.7h-1v-4.5h0l-1.8,4.5h-.8l-1.8-4.5h0v4.5h-1v-6.3h1.3l1.9,4.8h0l1.9-4.8h1.3s0,6.3,0,6.3ZM15.8,4.3h2.5c1.3,0,2.1.9,2.1,2.1s-.9,2.1-2.2,2.1h-1.3v2.1h-1.1v-6.3ZM17,5.3v2.4h1c.8,0,1.3-.4,1.3-1.2s-.5-1.2-1.3-1.2c0,0-1,0-1,0ZM22.6,7.8v-.8h.7c.7,0,1.2-.4,1.2-1s-.4-.9-1.1-.9-1.1.4-1.2,1h-1.1c0-1.1,1-1.9,2.2-1.9s2.2.7,2.2,1.7-.6,1.3-1.3,1.5h0c.9.1,1.6.7,1.6,1.6s-1,1.9-2.4,1.9-2.3-.8-2.4-1.9h1.1c0,.6.5,1,1.3,1s1.2-.4,1.2-1c0-.7-.5-1.1-1.3-1.1h-.8,0Z"/>
  </g>
</svg>